<svg xmlns="http://www.w3.org/2000/svg" viewBox="0 0 62.31 40.01"><defs><style>.cls-1{fill:#f2f2f2;}.cls-2{fill:gray;}</style></defs><title>Asset 3</title><g id="Layer_2" data-name="Layer 2"><g id="Layer_1-2" data-name="Layer 1"><path class="cls-1" d="M45.84,29.29a7.91,7.91,0,0,1-2.6,5.89A8.55,8.55,0,0,1,37,37.46a12.28,12.28,0,0,1-3.85-.77A25.64,25.64,0,0,0,27,35a7.55,7.55,0,0,0-2.84.39,4.35,4.35,0,0,0-1.81,1.3q-.2.19-.3.19s-.11-.05-.19-.15l-.33-.54a3.41,3.41,0,0,0-.63-.71A3.21,3.21,0,0,0,20,35l-.7-.23q-.22-.05-.22-.12s.06-.12.17-.21a10.33,10.33,0,0,0,3.57-3.83,9.15,9.15,0,0,0,1.05-4.17l.4-21.26q0-.46-.71-1L22.5,3.21a.36.36,0,0,1,0-.29c0-.13.15-.19.38-.19a14,14,0,0,1,1.46.09q1.22.11,1.71.12,1,0,2,0l1.14-.05q.44,0,.43.27a.41.41,0,0,1-.1.26,12.82,12.82,0,0,1-1,.77q-.77.56-.78,1l-.36,19a13.89,13.89,0,0,1-1.63,6.32,13.42,13.42,0,0,1-2.89,3.75A14.38,14.38,0,0,1,25.54,33,9.81,9.81,0,0,1,29,32.35a22.31,22.31,0,0,1,6,1.68,11.52,11.52,0,0,0,3.83.82A5.14,5.14,0,0,0,42.6,33.5a5.44,5.44,0,0,0,1.68-4.08A6.9,6.9,0,0,0,43,25a4.42,4.42,0,0,0-3.6-1.79,3.88,3.88,0,0,0-2.41.64A2.21,2.21,0,0,0,36,25.65a1.69,1.69,0,0,0,.51,1.41,1.72,1.72,0,0,0,1.11.36,2.51,2.51,0,0,0,.56-.11l.51-.16c.11-.06.18,0,.19.05v.29A1.65,1.65,0,0,1,38,28.81a3.31,3.31,0,0,1-1.92.55,3.26,3.26,0,0,1-2.47-1.07,4.1,4.1,0,0,1,.88-6,6.61,6.61,0,0,1,4-1.17,7,7,0,0,1,5.32,2.4A8.08,8.08,0,0,1,45.84,29.29Z"/><path class="cls-2" d="M41.71,24.48q-.17,7-7.82,11.45Q26.41,40.26,15.6,40A26,26,0,0,1,4.94,37.72q-5-2.41-4.94-6.26A5.17,5.17,0,0,1,1.37,28a4.23,4.23,0,0,1,3.42-1.43,4.07,4.07,0,0,1,2.35.65,1.75,1.75,0,0,1,.8,1.49,3,3,0,0,1-.21,1.19,2.27,2.27,0,0,1-.64.76.68.68,0,0,1-.37.19q-.1,0-.29-.41a1.84,1.84,0,0,0-.55-.69,2,2,0,0,0-1.23-.42A1.89,1.89,0,0,0,3,30.12a3,3,0,0,0-.61,1.79q-.07,3,4,4.76a22.54,22.54,0,0,0,8.47,1.63q8.88.22,15.14-3.65,6.64-4.08,6.8-10.78a7,7,0,0,0-1.12-4,8.22,8.22,0,0,0-3.2-2.91A12,12,0,0,1,29,19a11.05,11.05,0,0,1-4.64,1,7.76,7.76,0,0,1-3.66-.78,1.8,1.8,0,0,1-1-1.65q0-1.25,1.89-2.18a11.41,11.41,0,0,1,4.21-1.11q1.34-.09,2.34-.07a14.5,14.5,0,0,1,2.67.29A11.31,11.31,0,0,0,32,12.36,6.69,6.69,0,0,0,32.48,10Q32.57,6.18,28,3.86a22.59,22.59,0,0,0-9.8-2.21A23.17,23.17,0,0,0,8.62,3.3Q4.34,5.09,3.84,7.78a4.75,4.75,0,0,0-.08.64,1.74,1.74,0,0,0,.44,1.32,1.75,1.75,0,0,0,1.26.49,3.43,3.43,0,0,0,1.24-.17,3,3,0,0,0,.58-.33c.09-.11.17-.16.24-.14a.13.13,0,0,1,.1.15q.18.84-1.25,1.59A4.76,4.76,0,0,1,4,11.81a3.23,3.23,0,0,1-2.16-.86,2.86,2.86,0,0,1-1-2.31Q1,5.13,6.31,2.54A28.35,28.35,0,0,1,19.52,0,31.57,31.57,0,0,1,31.63,2.37q5.8,2.6,5.69,7.26a6.17,6.17,0,0,1-.91,3.12,14.15,14.15,0,0,1-2.24,2.6,12.56,12.56,0,0,1,4.91,3.34A8.18,8.18,0,0,1,41.71,24.48ZM18.29,34.57a.3.3,0,0,1,.1.15.31.31,0,0,1,0,.12q0,.27-.61.25-.34,0-2-.11t-2.3-.14q-1.08,0-3.23,0a9.86,9.86,0,0,1-1.14,0q-.57,0-.56-.31a.23.23,0,0,1,.11-.19q.1-.1,1.46-.82,1.05-.56,1.06-1l.56-22.58a1.11,1.11,0,0,0-.61-1.1q-.77-.24-1-.36t-.28-.26c0-.1.1-.18.31-.24a7.72,7.72,0,0,1,1.05-.47q2.48-.95,3-1.16Q15,6,16.87,5.08a8.22,8.22,0,0,1,1.84-.77c.25-.08.37,0,.37.16a.36.36,0,0,1-.11.19,10,10,0,0,0-1.84,2.9,11.36,11.36,0,0,0-.7,3.77L15.9,32.66q0,.47,1,1.06Q18.23,34.49,18.29,34.57ZM29.71,16a12.47,12.47,0,0,0-2.94-.39q-.54,0-1.34,0a7.1,7.1,0,0,0-1.92.43q-1.39.51-1.41,1.27t1,1a4.93,4.93,0,0,0,1.17.18,6.86,6.86,0,0,0,3.08-.7A5.94,5.94,0,0,0,29.71,16Z"/><path d="M62.31,4.29q0,1.66-2.59,3A12.15,12.15,0,0,1,54,8.63a17.34,17.34,0,0,1-2-.1q-.86-.1-2.2-.34V34.47q0,.42.75.93,1,.68,1,.74a.27.27,0,0,1,.07.13.33.33,0,0,1,0,.11c0,.16-.15.24-.45.24s-.66,0-1.48-.06-1.39-.08-1.7-.08q-.8,0-2.39.11a6,6,0,0,1-.85,0q-.42,0-.42-.27a.23.23,0,0,1,.07-.18,12.94,12.94,0,0,1,1.07-.78q.77-.53.77-1V7.74l-2.79-.38a30.34,30.34,0,0,0-3.78-.24,7,7,0,0,0-3,.49,1.66,1.66,0,0,0-.95,1.6,1,1,0,0,0,.3.69,1.07,1.07,0,0,0,.6.35,3.9,3.9,0,0,0,.57,0,2.4,2.4,0,0,0,.65-.07,1.19,1.19,0,0,0,.37-.18q.2-.11.3,0a.33.33,0,0,1,.05.31A2.16,2.16,0,0,1,38,11.43a2.45,2.45,0,0,1-1.73.62,2.13,2.13,0,0,1-1.61-.64,2.24,2.24,0,0,1-.62-1.62q0-2.11,3.21-3.51a17.83,17.83,0,0,1,7.24-1.41,20.32,20.32,0,0,1,4.1.4l4,.8a21.77,21.77,0,0,0,4.22.4A7,7,0,0,0,59.51,6a1.36,1.36,0,0,0,1-1.26.66.66,0,0,0-.39-.7,2.94,2.94,0,0,0-1-.14q-.37,0-.37-.13a.48.48,0,0,1,.07-.22,1.56,1.56,0,0,1,.57-.64,1.89,1.89,0,0,1,1.07-.33A2,2,0,0,1,61.83,3,1.59,1.59,0,0,1,62.31,4.29Z"/></g></g></svg>